<svg width="40" height="41" viewBox="0 0 40 41" fill="none" xmlns="http://www.w3.org/2000/svg">
<mask id="path-1-inside-1_2870_462" fill="white">
<path d="M19.9975 36.7671C18.1577 36.7581 16.6661 35.2738 16.6479 33.4342H23.3137C23.3172 33.8798 23.2323 34.3216 23.0638 34.734C22.6267 35.7372 21.7336 36.469 20.6641 36.7004H20.6557H20.6307H20.6008H20.5858C20.3921 36.7408 20.1951 36.7631 19.9975 36.7671ZM33.3292 31.7677H6.66583V28.4348L9.99875 26.7683V17.6028C9.91096 15.2517 10.4419 12.9186 11.5386 10.837C12.6302 8.90643 14.496 7.53555 16.6646 7.07081V3.43793H23.3304V7.07081C27.6282 8.09401 29.9962 11.8335 29.9962 17.6028V26.7683L33.3292 28.4348V31.7677Z"/>
</mask>
<path d="M19.9975 36.7671C18.1577 36.7581 16.6661 35.2738 16.6479 33.4342H23.3137C23.3172 33.8798 23.2323 34.3216 23.0638 34.734C22.6267 35.7372 21.7336 36.469 20.6641 36.7004H20.6557H20.6307H20.6008H20.5858C20.3921 36.7408 20.1951 36.7631 19.9975 36.7671ZM33.3292 31.7677H6.66583V28.4348L9.99875 26.7683V17.6028C9.91096 15.2517 10.4419 12.9186 11.5386 10.837C12.6302 8.90643 14.496 7.53555 16.6646 7.07081V3.43793H23.3304V7.07081C27.6282 8.09401 29.9962 11.8335 29.9962 17.6028V26.7683L33.3292 28.4348V31.7677Z" stroke="#1E325A" stroke-width="6.4" mask="url(#path-1-inside-1_2870_462)"/>
</svg>
