<svg width="31" height="31" viewBox="0 0 31 31" fill="none" xmlns="http://www.w3.org/2000/svg">
<path d="M25.6375 22.3625L19.25 11.4125V5.49995H20.5C20.8315 5.49995 21.1495 5.36825 21.3839 5.13384C21.6184 4.89942 21.75 4.58148 21.75 4.24995C21.75 3.91843 21.6184 3.60049 21.3839 3.36607C21.1495 3.13165 20.8315 2.99995 20.5 2.99995H10.5001C10.1685 2.99995 9.8506 3.13165 9.61619 3.36607C9.38176 3.60049 9.25006 3.91843 9.25006 4.24995C9.25006 4.58148 9.38176 4.89942 9.61619 5.13384C9.8506 5.36825 10.1685 5.49995 10.5001 5.49995H11.7501V11.4125L5.36256 22.3625C5.03075 22.9321 4.85496 23.5792 4.85292 24.2385C4.8509 24.8977 5.0227 25.5458 5.351 26.1175C5.67931 26.6892 6.15252 27.1642 6.72294 27.4947C7.29335 27.8252 7.94082 27.9995 8.60006 28H22.35C23.0093 27.9995 23.6568 27.8252 24.2272 27.4947C24.7977 27.1642 25.2708 26.6892 25.5992 26.1175C25.9274 25.5458 26.0993 24.8977 26.0972 24.2385C26.0952 23.5792 25.9194 22.9321 25.5875 22.3625H25.6375ZM14.075 12.3625C14.1853 12.1768 14.2457 11.9658 14.25 11.75V5.49995H16.75V11.75C16.7524 11.9701 16.8127 12.1857 16.925 12.375L18 14.25H13L14.075 12.3625ZM23.475 24.8625C23.366 25.0513 23.2094 25.2085 23.0208 25.3181C22.8322 25.4277 22.6182 25.4861 22.4 25.4875H8.65006C8.43192 25.4861 8.21792 25.4277 8.02934 25.3181C7.84075 25.2085 7.68414 25.0513 7.57506 24.8625C7.46535 24.6725 7.4076 24.4568 7.4076 24.2375C7.4076 24.0181 7.46535 23.8025 7.57506 23.6125L11.5376 16.75H19.475L23.475 23.625C23.5848 23.815 23.6425 24.0306 23.6425 24.25C23.6425 24.4693 23.5848 24.685 23.475 24.875V24.8625ZM13 19.25C12.7528 19.25 12.5112 19.3232 12.3056 19.4606C12.1 19.598 11.9398 19.7932 11.8452 20.0216C11.7506 20.25 11.7258 20.5013 11.7741 20.7438C11.8223 20.9863 11.9414 21.2091 12.1162 21.3838C12.291 21.5587 12.5137 21.6777 12.7562 21.726C12.9987 21.7742 13.25 21.7495 13.4784 21.6548C13.7068 21.5602 13.902 21.4 14.0394 21.1945C14.1768 20.9888 14.25 20.7472 14.25 20.5C14.25 20.1685 14.1184 19.8505 13.8839 19.6161C13.6495 19.3817 13.3315 19.25 13 19.25ZM18 20.5C17.7528 20.5 17.5112 20.5732 17.3057 20.7106C17.1 20.848 16.9398 21.0432 16.8452 21.2716C16.7507 21.5 16.7259 21.7513 16.774 21.9938C16.8223 22.2363 16.9414 22.4591 17.1162 22.6338C17.291 22.8087 17.5138 22.9277 17.7562 22.976C17.9987 23.0242 18.25 22.9995 18.4784 22.9048C18.7068 22.8102 18.902 22.65 19.0394 22.4445C19.1768 22.2388 19.25 21.9972 19.25 21.75C19.25 21.4185 19.1184 21.1005 18.8839 20.8661C18.6495 20.6317 18.3315 20.5 18 20.5Z" fill="white"/>
</svg>
