<svg width="15" height="16" viewBox="0 0 15 16" fill="none" xmlns="http://www.w3.org/2000/svg">
<g clip-path="url(#clip0)">
<path d="M6.1875 3.15001C6.61769 3.04931 7.05819 2.99897 7.5 3.00002C11.875 3.00002 14.375 8 14.375 8C13.9956 8.70975 13.5432 9.378 13.025 9.99375L6.1875 3.15001ZM8.825 9.325C8.65337 9.50925 8.44631 9.657 8.21638 9.75943C7.98638 9.86193 7.73806 9.91706 7.48631 9.9215C7.23456 9.92593 6.9845 9.87962 6.751 9.78531C6.51756 9.691 6.30544 9.55068 6.12741 9.37262C5.94936 9.19456 5.80899 8.9825 5.71469 8.749C5.62039 8.51556 5.57408 8.26543 5.57852 8.01368C5.58296 7.76193 5.63807 7.51368 5.74055 7.28368C5.84303 7.05368 5.99078 6.84668 6.175 6.67502L8.825 9.325ZM11.2125 11.7125C10.1441 12.5269 8.84319 12.9781 7.5 13C3.125 13 0.625 8 0.625 8C1.40243 6.5512 2.48071 5.28539 3.7875 4.28752L11.2125 11.7125Z" stroke="#808C9D" stroke-linecap="round" stroke-linejoin="round"/>
<path d="M0.625 1.125L14.375 14.875" stroke="#808C9D" stroke-linecap="round" stroke-linejoin="round"/>
</g>
<defs>
<clipPath id="clip0">
<rect width="15" height="15" fill="white" transform="translate(0 0.5)"/>
</clipPath>
</defs>
</svg>
