<svg width="16" height="21" viewBox="0 0 16 21" fill="none" xmlns="http://www.w3.org/2000/svg">
<path d="M8 20.2625C6.8954 20.2625 6 19.3671 6 18.2625H10C10 19.3671 9.1046 20.2625 8 20.2625ZM16 17.2625H0V15.2625L2 14.2625V8.7625C2 5.3005 3.421 3.0555 6 2.4425V0.262497H10V2.4425C12.579 3.0545 14 5.2985 14 8.7625V14.2625L16 15.2625V17.2625ZM8 4.0125C6.7797 3.9337 5.60278 4.47978 4.875 5.4625C4.25255 6.44706 3.94714 7.59888 4 8.7625V15.2625H12V8.7625C12.0528 7.59889 11.7474 6.44708 11.125 5.4625C10.3972 4.47978 9.2203 3.9337 8 4.0125Z" fill="#BBC8DB"/>
</svg>
