<svg width="30" height="31" viewBox="0 0 30 31" fill="none" xmlns="http://www.w3.org/2000/svg">
<path d="M12.25 4.25C8.79822 4.25 6 7.04822 6 10.5C6 13.9517 8.79822 16.75 12.25 16.75C15.7017 16.75 18.5 13.9517 18.5 10.5C18.5 7.04822 15.7017 4.25 12.25 4.25ZM8.5 10.5C8.5 8.42894 10.1789 6.75 12.25 6.75C14.3211 6.75 16 8.42894 16 10.5C16 12.5711 14.3211 14.25 12.25 14.25C10.1789 14.25 8.5 12.5711 8.5 10.5Z" fill="white"/>
<path d="M22.1355 10.7728C21.7839 10.5935 21.3947 10.5 21 10.5V8.00005C21.7895 8.00005 22.5677 8.18692 23.2711 8.54553C23.3486 8.58503 23.4249 8.62648 23.5 8.66985C24.1067 9.02015 24.634 9.49458 25.0466 10.0632C25.5104 10.7021 25.8161 11.4418 25.939 12.2217C26.062 13.0016 25.9984 13.7995 25.7536 14.5501C25.5089 15.3006 25.0899 15.9826 24.5309 16.5401C23.9719 17.0977 23.2889 17.5148 22.5376 17.7577C21.8691 17.9737 21.1635 18.0462 20.4669 17.9715C20.3807 17.9622 20.2946 17.9507 20.2087 17.937C19.4297 17.8121 18.6914 17.5047 18.0539 17.0398L18.0526 17.0388L19.5262 15.0195C19.8451 15.2521 20.2146 15.406 20.6044 15.4683C20.9941 15.5308 21.3931 15.5001 21.7687 15.3787C22.1444 15.2573 22.4859 15.0487 22.7654 14.77C23.0449 14.4912 23.2544 14.1502 23.3767 13.775C23.4991 13.3997 23.5309 13.0007 23.4695 12.6108C23.408 12.2209 23.2551 11.8511 23.0232 11.5316C22.7914 11.2121 22.4872 10.9521 22.1355 10.7728Z" fill="white"/>
<path d="M25.9976 26.75C25.9976 26.0938 25.8684 25.4439 25.6172 24.8375C25.366 24.2311 24.9979 23.6802 24.5339 23.2161C24.0698 22.7521 23.5189 22.384 22.9125 22.1328C22.3061 21.8816 21.6562 21.7524 21 21.7524V19.25C21.8526 19.25 22.698 19.3954 23.5 19.6789C23.6245 19.7229 23.7479 19.7703 23.8701 19.8209C24.7801 20.1979 25.6069 20.7503 26.3032 21.4468C26.9997 22.1431 27.5521 22.9699 27.9291 23.8799C27.9798 24.0021 28.0271 24.1255 28.0711 24.25C28.3546 25.052 28.5 25.8974 28.5 26.75H25.9976Z" fill="white"/>
<path d="M21 26.75H18.5C18.5 23.2982 15.7017 20.5 12.25 20.5C8.79822 20.5 6 23.2982 6 26.75H3.5C3.5 21.9175 7.41751 18 12.25 18C17.0825 18 21 21.9175 21 26.75Z" fill="white"/>
</svg>
