<svg width="31" height="31" viewBox="0 0 31 31" fill="none" xmlns="http://www.w3.org/2000/svg">
<path d="M24.2501 28H6.75006C6.05971 28 5.50006 27.4404 5.50006 26.75V14.7675C5.50006 14.436 5.63187 14.1181 5.86631 13.8838L14.6163 5.13374C14.8508 4.89902 15.1689 4.76714 15.5007 4.76714C15.8324 4.76714 16.1506 4.89902 16.3851 5.13374L25.1351 13.8838C25.3697 14.1179 25.5012 14.436 25.5001 14.7675V26.75C25.5001 27.4404 24.9404 28 24.2501 28ZM13.0001 19.25H18.0001V25.5H23.0001V15.285L15.5001 7.78499L8.00006 15.285V25.5H13.0001V19.25Z" fill="white"/>
</svg>
