<svg width="21" height="20" viewBox="0 0 21 20" fill="none" xmlns="http://www.w3.org/2000/svg">
<path d="M18.379 16.9084L15.2874 13.8417C16.4875 12.3454 17.0686 10.4461 16.9114 8.53443C16.7541 6.62279 15.8705 4.84403 14.442 3.56391C13.0135 2.28379 11.1489 1.59963 9.23145 1.6521C7.3141 1.70457 5.48966 2.48968 4.13335 3.84599C2.77703 5.20231 1.99192 7.02674 1.93945 8.9441C1.88699 10.8615 2.57115 12.7262 3.85126 14.1546C5.13138 15.5831 6.91015 16.4668 8.82179 16.624C10.7335 16.7813 12.6327 16.2001 14.129 15L17.1957 18.0667C17.2732 18.1449 17.3654 18.2069 17.4669 18.2491C17.5685 18.2914 17.6774 18.3132 17.7874 18.3132C17.8974 18.3132 18.0063 18.2914 18.1079 18.2491C18.2095 18.2069 18.3016 18.1449 18.379 18.0667C18.5293 17.9114 18.6132 17.7037 18.6132 17.4875C18.6132 17.2714 18.5293 17.0638 18.379 16.9084ZM9.45404 15C8.30034 15 7.17252 14.6579 6.21323 14.0169C5.25395 13.3759 4.50627 12.4649 4.06476 11.399C3.62325 10.3331 3.50773 9.16027 3.73281 8.02868C3.9579 6.89713 4.51346 5.85773 5.32927 5.04192C6.14508 4.22611 7.18448 3.67054 8.31603 3.44546C9.44762 3.22038 10.6205 3.3359 11.6864 3.77741C12.7523 4.21892 13.6633 4.96659 14.3043 5.92588C14.9453 6.88517 15.2874 8.01298 15.2874 9.16669C15.2874 10.7138 14.6728 12.1975 13.5789 13.2915C12.4849 14.3854 11.0011 15 9.45404 15Z" fill="#99AAC4"/>
</svg>
