<svg width="14" height="15" viewBox="0 0 14 15" fill="none" xmlns="http://www.w3.org/2000/svg">
<path d="M4.22229 5.27778C4.22229 3.74366 5.46595 2.5 7.00007 2.5C8.53418 2.5 9.77784 3.74366 9.77784 5.27778C9.77784 6.81189 8.53418 8.05556 7.00007 8.05556C5.46595 8.05556 4.22229 6.81189 4.22229 5.27778ZM7.00007 6.94444C7.92057 6.94444 8.66673 6.19825 8.66673 5.27778C8.66673 4.35731 7.92057 3.61111 7.00007 3.61111C6.07957 3.61111 5.3334 4.35731 5.3334 5.27778C5.3334 6.19825 6.07957 6.94444 7.00007 6.94444Z" fill="white"/>
<path d="M3.85729 9.91281C3.02379 10.7463 2.55554 11.8768 2.55554 13.0555H3.66665C3.66665 12.1715 4.01784 11.3236 4.64296 10.6985C5.26809 10.0734 6.11593 9.7222 6.99999 9.7222C7.88404 9.7222 8.73187 10.0734 9.35699 10.6985C9.98215 11.3236 10.3333 12.1715 10.3333 13.0555H11.4444C11.4444 11.8768 10.9762 10.7463 10.1427 9.91281C9.30921 9.07936 8.17871 8.61108 6.99999 8.61108C5.82125 8.61108 4.69079 9.07936 3.85729 9.91281Z" fill="white"/>
</svg>
