<svg width="16" height="16" viewBox="0 0 16 16" fill="none" xmlns="http://www.w3.org/2000/svg">
<path d="M10.3334 7.33334C10.8856 7.33334 11.3334 6.8856 11.3334 6.33334C11.3334 5.78105 10.8856 5.33334 10.3334 5.33334C9.78111 5.33334 9.33337 5.78105 9.33337 6.33334C9.33337 6.8856 9.78111 7.33334 10.3334 7.33334Z" fill="#FFB129"/>
<path d="M5.66663 7.33334C6.21891 7.33334 6.66663 6.8856 6.66663 6.33334C6.66663 5.78105 6.21891 5.33334 5.66663 5.33334C5.11434 5.33334 4.66663 5.78105 4.66663 6.33334C4.66663 6.8856 5.11434 7.33334 5.66663 7.33334Z" fill="#FFB129"/>
<path d="M7.99337 1.33334C4.31337 1.33334 1.33337 4.32 1.33337 8C1.33337 11.68 4.31337 14.6667 7.99337 14.6667C11.68 14.6667 14.6667 11.68 14.6667 8C14.6667 4.32 11.68 1.33334 7.99337 1.33334ZM8.00004 13.3333C5.05337 13.3333 2.66671 10.9467 2.66671 8C2.66671 5.05334 5.05337 2.66667 8.00004 2.66667C10.9467 2.66667 13.3334 5.05334 13.3334 8C13.3334 10.9467 10.9467 13.3333 8.00004 13.3333ZM4.66671 9.33334C5.18671 10.8933 6.48004 12 8.00004 12C9.52004 12 10.8134 10.8933 11.3334 9.33334H4.66671Z" fill="#FFB129"/>
</svg>
