<svg width="17" height="17" viewBox="0 0 17 17" fill="none" xmlns="http://www.w3.org/2000/svg">
<circle cx="8.5" cy="8.7625" r="7.5" stroke="url(#paint0_linear_963_117)"/>
<path d="M12.0607 5.0658C12.0065 5.02194 11.9432 4.9908 11.8753 4.97465C11.8075 4.95849 11.7369 4.95775 11.6687 4.97247C11.17 5.07698 10.6553 5.07831 10.1561 4.97638C9.65688 4.87445 9.18386 4.67143 8.76606 4.3798C8.68794 4.32561 8.59511 4.29657 8.50005 4.29657C8.40499 4.29657 8.31218 4.32561 8.23406 4.3798C7.8163 4.67143 7.34323 4.87445 6.84403 4.97638C6.34483 5.07831 5.83005 5.07698 5.33139 4.97247C5.26323 4.95775 5.19263 4.95849 5.1248 4.97465C5.05696 4.9908 4.99361 5.02194 4.93939 5.0658C4.88525 5.10972 4.84164 5.16522 4.81175 5.22821C4.78187 5.2912 4.76649 5.36008 4.76673 5.4298V8.90645C4.76631 9.57555 4.92575 10.235 5.23177 10.83C5.5378 11.425 5.98154 11.9383 6.52606 12.3271L8.22939 13.5404C8.30844 13.5967 8.40303 13.627 8.50005 13.627C8.59707 13.627 8.69167 13.5967 8.77072 13.5404L10.4741 12.3271C11.0186 11.9383 11.4623 11.425 11.7684 10.83C12.0743 10.235 12.2338 9.57555 12.2334 8.90645V5.4298C12.2336 5.36008 12.2182 5.2912 12.1884 5.22821C12.1585 5.16522 12.1149 5.10972 12.0607 5.0658ZM11.3001 8.90645C11.3004 9.42669 11.1765 9.93946 10.9387 10.4022C10.7009 10.8648 10.356 11.264 9.93272 11.5664L8.50005 12.5884L7.06739 11.5664C6.64414 11.264 6.29925 10.8648 6.06142 10.4022C5.82359 9.93946 5.6997 9.42669 5.70006 8.90645V5.96647C6.67839 6.05021 7.65819 5.82321 8.50005 5.3178C9.34192 5.82321 10.3217 6.05021 11.3001 5.96647V8.90645ZM9.21872 7.8378L7.96339 9.09778L7.54806 8.67778C7.46018 8.58991 7.341 8.54054 7.21673 8.54054C7.09245 8.54054 6.97327 8.58991 6.88539 8.67778C6.79752 8.76565 6.74815 8.88484 6.74815 9.00912C6.74815 9.13339 6.79752 9.25258 6.88539 9.34045L7.63206 10.0871C7.67546 10.1309 7.72707 10.1656 7.78391 10.1893C7.84079 10.213 7.90179 10.2252 7.96339 10.2252C8.02499 10.2252 8.08598 10.213 8.14287 10.1893C8.19971 10.1656 8.25132 10.1309 8.29472 10.0871L9.90006 8.49578C9.98793 8.40791 10.0373 8.28872 10.0373 8.16445C10.0373 8.04017 9.98793 7.92101 9.90006 7.83313C9.81218 7.74526 9.693 7.69589 9.56872 7.69589C9.44445 7.69589 9.32526 7.74526 9.23739 7.83313L9.21872 7.8378Z" fill="url(#paint1_linear_963_117)"/>
<defs>
<linearGradient id="paint0_linear_963_117" x1="0.5" y1="0.762497" x2="16.5" y2="16.7625" gradientUnits="userSpaceOnUse">
<stop stop-color="#00D1FF"/>
<stop offset="1" stop-color="#0075FF"/>
</linearGradient>
<linearGradient id="paint1_linear_963_117" x1="4.76672" y1="4.29657" x2="13.8702" y2="11.5816" gradientUnits="userSpaceOnUse">
<stop stop-color="#00D1FF"/>
<stop offset="1" stop-color="#0075FF"/>
</linearGradient>
</defs>
</svg>
