<svg width="13" height="12" viewBox="0 0 13 12" fill="none" xmlns="http://www.w3.org/2000/svg">
<path d="M10.0607 2.0658C10.0065 2.02194 9.94317 1.9908 9.87532 1.97465C9.80746 1.95849 9.7369 1.95775 9.66872 1.97247C9.17004 2.07698 8.65526 2.07831 8.15607 1.97638C7.65688 1.87445 7.18386 1.67143 6.76606 1.3798C6.68794 1.32561 6.59511 1.29657 6.50005 1.29657C6.40499 1.29657 6.31218 1.32561 6.23406 1.3798C5.8163 1.67143 5.34323 1.87445 4.84403 1.97638C4.34483 2.07831 3.83005 2.07698 3.33139 1.97247C3.26323 1.95775 3.19263 1.95849 3.1248 1.97465C3.05696 1.9908 2.99361 2.02194 2.93939 2.0658C2.88525 2.10972 2.84164 2.16522 2.81175 2.22821C2.78187 2.2912 2.76649 2.36008 2.76673 2.4298V5.90645C2.76631 6.57555 2.92575 7.23505 3.23177 7.83005C3.5378 8.42505 3.98154 8.93833 4.52606 9.32711L6.22939 10.5404C6.30844 10.5967 6.40303 10.627 6.50005 10.627C6.59707 10.627 6.69167 10.5967 6.77072 10.5404L8.47405 9.32711C9.01856 8.93833 9.46232 8.42505 9.76836 7.83005C10.0743 7.23505 10.2338 6.57555 10.2334 5.90645V2.4298C10.2336 2.36008 10.2182 2.2912 10.1884 2.22821C10.1585 2.16522 10.1149 2.10972 10.0607 2.0658ZM9.30006 5.90645C9.30043 6.42669 9.17653 6.93946 8.93872 7.40216C8.70086 7.86482 8.35599 8.264 7.93272 8.56645L6.50005 9.58845L5.06739 8.56645C4.64414 8.264 4.29925 7.86482 4.06142 7.40216C3.82359 6.93946 3.6997 6.42669 3.70006 5.90645V2.96647C4.67839 3.05021 5.65819 2.82321 6.50005 2.3178C7.34192 2.82321 8.32174 3.05021 9.30006 2.96647V5.90645ZM7.21872 4.8378L5.96339 6.09778L5.54806 5.67778C5.46018 5.58991 5.341 5.54054 5.21673 5.54054C5.09245 5.54054 4.97327 5.58991 4.88539 5.67778C4.79752 5.76565 4.74815 5.88484 4.74815 6.00912C4.74815 6.13339 4.79752 6.25258 4.88539 6.34045L5.63206 7.08711C5.67546 7.13089 5.72707 7.16561 5.78391 7.18927C5.84079 7.21298 5.90179 7.22515 5.96339 7.22515C6.02499 7.22515 6.08598 7.21298 6.14287 7.18927C6.19971 7.16561 6.25132 7.13089 6.29472 7.08711L7.90006 5.49578C7.98793 5.40791 8.0373 5.28872 8.0373 5.16445C8.0373 5.04017 7.98793 4.92101 7.90006 4.83313C7.81218 4.74526 7.693 4.69589 7.56872 4.69589C7.44445 4.69589 7.32526 4.74526 7.23739 4.83313L7.21872 4.8378Z" fill="white"/>
</svg>
