<svg width="24" height="25" viewBox="0 0 24 25" fill="none" xmlns="http://www.w3.org/2000/svg">
<path d="M13 22.5H11V19.5H13V22.5ZM18.3639 20.278L16.2429 18.157L17.657 16.743L19.7789 18.865L18.3659 20.278H18.3639ZM5.636 20.278L4.221 18.864L6.341 16.742L7.756 18.156L5.636 20.277V20.278ZM12 17.507C9.23497 17.5059 6.99426 15.2637 6.995 12.4987C6.99573 9.73364 9.23763 7.49263 12.0027 7.493C14.7677 7.49337 17.009 9.73497 17.009 12.5C17.0063 15.2649 14.765 17.5053 12 17.507ZM12 9.493C10.3396 9.4941 8.99426 10.8409 8.995 12.5013C8.99573 14.1618 10.3423 15.5074 12.0027 15.507C13.6632 15.5066 15.009 14.1605 15.009 12.5C15.0074 10.8392 13.6609 9.49355 12 9.493ZM21.9999 13.5H18.9999V11.5H21.9999V13.5ZM5 13.5H2V11.5H5V13.5ZM17.6559 8.258L16.2429 6.843L18.3639 4.721L19.7789 6.136L17.657 8.257L17.6559 8.258ZM6.343 8.258L4.223 6.137L5.638 4.723L7.758 6.845L6.344 8.257L6.343 8.258ZM13 5.5H11V2.5H13V5.5Z" fill="#979FAA"/>
</svg>
