<svg width="28" height="28" viewBox="0 0 28 28" fill="none" xmlns="http://www.w3.org/2000/svg">
<path d="M21.875 11.75C21.5767 11.75 21.2905 11.8686 21.0795 12.0795C20.8686 12.2905 20.75 12.5767 20.75 12.875V16.6775L19.085 15.0125C18.4971 14.4292 17.7025 14.1019 16.8744 14.1019C16.0463 14.1019 15.2517 14.4292 14.6638 15.0125L13.8763 15.8113L11.0863 13.01C10.4983 12.4267 9.70377 12.0994 8.87563 12.0994C8.04748 12.0994 7.2529 12.4267 6.665 13.01L5 14.6863V8.375C5 8.07663 5.11853 7.79048 5.3295 7.5795C5.54048 7.36853 5.82663 7.25 6.125 7.25H15.125C15.4234 7.25 15.7096 7.13147 15.9205 6.9205C16.1314 6.70952 16.25 6.42337 16.25 6.125C16.25 5.82663 16.1314 5.54048 15.9205 5.3295C15.7096 5.11853 15.4234 5 15.125 5H6.125C5.22989 5 4.37145 5.35558 3.73852 5.98852C3.10558 6.62145 2.75 7.47989 2.75 8.375V22.1225C2.75297 22.9511 3.08342 23.7449 3.66929 24.3307C4.25518 24.9166 5.04895 25.2471 5.8775 25.25H19.8725C20.1774 25.2475 20.4803 25.2021 20.7725 25.115C21.4221 24.9328 21.994 24.5425 22.4005 24.004C22.8068 23.4654 23.0254 22.8084 23.0225 22.1338V12.875C23.0225 12.7254 22.9927 12.5772 22.9348 12.4392C22.8768 12.3013 22.792 12.1763 22.6851 12.0714C22.5782 11.9667 22.4516 11.8843 22.3124 11.8291C22.1734 11.7739 22.0246 11.747 21.875 11.75ZM6.125 23C5.82663 23 5.54048 22.8814 5.3295 22.6705C5.11853 22.4596 5 22.1734 5 21.875V17.8588L8.25125 14.6075C8.41567 14.444 8.63813 14.3522 8.87 14.3522C9.10187 14.3522 9.32433 14.444 9.48875 14.6075L17.8925 23H6.125ZM20.75 21.875C20.7428 22.0928 20.6724 22.3039 20.5475 22.4825L15.4625 17.375L16.2613 16.5875C16.3419 16.5052 16.4382 16.4398 16.5444 16.3951C16.6506 16.3505 16.7648 16.3275 16.88 16.3275C16.9952 16.3275 17.1094 16.3505 17.2156 16.3951C17.3218 16.4398 17.4181 16.5052 17.4988 16.5875L20.75 19.8613V21.875ZM24.125 5H23V3.875C23 3.57663 22.8814 3.29048 22.6705 3.0795C22.4596 2.86853 22.1734 2.75 21.875 2.75C21.5767 2.75 21.2905 2.86853 21.0795 3.0795C20.8686 3.29048 20.75 3.57663 20.75 3.875V5H19.625C19.3267 5 19.0405 5.11853 18.8295 5.3295C18.6186 5.54048 18.5 5.82663 18.5 6.125C18.5 6.42337 18.6186 6.70952 18.8295 6.9205C19.0405 7.13147 19.3267 7.25 19.625 7.25H20.75V8.375C20.75 8.67337 20.8686 8.95952 21.0795 9.1705C21.2905 9.38147 21.5767 9.5 21.875 9.5C22.1734 9.5 22.4596 9.38147 22.6705 9.1705C22.8814 8.95952 23 8.67337 23 8.375V7.25H24.125C24.4234 7.25 24.7096 7.13147 24.9205 6.9205C25.1314 6.70952 25.25 6.42337 25.25 6.125C25.25 5.82663 25.1314 5.54048 24.9205 5.3295C24.7096 5.11853 24.4234 5 24.125 5Z" fill="#C4C4C4"/>
</svg>
