<svg width="19" height="19" viewBox="0 0 19 19" fill="none" xmlns="http://www.w3.org/2000/svg">
<path d="M6.40691 14.2967L6.95141 14.5877C7.79523 15.0389 8.73757 15.2742 9.69442 15.2728H9.69692C12.9182 15.2728 15.5293 12.6616 15.5293 9.44039C15.5293 6.21913 12.9182 3.60799 9.69692 3.60799C6.47567 3.60799 3.86453 6.21913 3.86453 9.44039V9.44289C3.86309 10.3997 4.09842 11.3421 4.54955 12.1859L4.84066 12.7304L4.39304 14.7443L6.40691 14.2967ZM2.19813 16.9392L3.07999 12.9716C2.49923 11.8852 2.19627 10.6722 2.19813 9.44039C2.19813 5.2988 5.55534 1.94159 9.69692 1.94159C13.8385 1.94159 17.1957 5.2988 17.1957 9.44039C17.1957 13.582 13.8385 16.9392 9.69692 16.9392C8.46512 16.941 7.25203 16.6381 6.16574 16.0573L2.19813 16.9392Z" fill="#FD5889"/>
<ellipse cx="8.92777" cy="9.50157" rx="6.84" ry="7.2" fill="#FD5889"/>
</svg>
