<svg width="19" height="19" viewBox="0 0 19 19" fill="none" xmlns="http://www.w3.org/2000/svg">
<path d="M9.5 16.2447C9.01625 15.816 8.4695 15.3699 7.89127 14.8954H7.88377C5.84752 13.2313 3.53977 11.3482 2.52052 9.09186C2.18566 8.3735 2.0082 7.59196 2.00001 6.79952C1.99777 5.71218 2.43409 4.66984 3.21037 3.90806C3.98665 3.14628 5.03736 2.72938 6.12502 2.75158C7.01049 2.75297 7.8769 3.00876 8.621 3.48845C8.948 3.70056 9.2438 3.95715 9.5 4.25082C9.75763 3.95831 10.0536 3.70187 10.3798 3.48845C11.1236 3.00866 11.9898 2.75286 12.875 2.75158C13.9627 2.72938 15.0134 3.14628 15.7897 3.90806C16.566 4.66984 17.0023 5.71218 17 6.79952C16.9924 7.59323 16.8149 8.37612 16.4795 9.09561C15.4603 11.352 13.1533 13.2343 11.117 14.8954L11.1095 14.9014C10.5305 15.3729 9.9845 15.819 9.50075 16.2507L9.5 16.2447ZM6.12502 4.25082C5.4264 4.24208 4.75257 4.50931 4.25002 4.99444C3.76581 5.46982 3.49519 6.12115 3.49996 6.79952C3.50851 7.37711 3.63939 7.94633 3.88402 8.46968C4.36515 9.44321 5.01435 10.3242 5.80177 11.0724C6.54502 11.822 7.40002 12.5476 8.1395 13.1578C8.34425 13.3265 8.55275 13.4966 8.76125 13.6668L8.8925 13.774C9.09275 13.9374 9.29975 14.1068 9.5 14.2732L9.50975 14.2642L9.51425 14.2605H9.51875L9.5255 14.2552H9.52925H9.533L9.5465 14.244L9.57725 14.2193L9.5825 14.2148L9.59075 14.2088H9.59525L9.602 14.2028L10.1 13.7942L10.2305 13.687C10.4413 13.5154 10.6498 13.3452 10.8545 13.1765C11.594 12.5664 12.4498 11.8415 13.193 11.0881C13.9806 10.3404 14.6298 9.45955 15.1108 8.48617C15.3598 7.95829 15.4926 7.3831 15.5001 6.79952C15.5032 6.12324 15.2326 5.47441 14.75 5.00044C14.2484 4.51312 13.5745 4.24368 12.875 4.25082C12.0214 4.24356 11.2055 4.60116 10.6325 5.23357L9.5 6.53791L8.3675 5.23357C7.79457 4.60116 6.97858 4.24356 6.12502 4.25082Z" fill="#FD5889"/>
<ellipse cx="7.76281" cy="9.20524" rx="6" ry="4" transform="rotate(54 7.76281 9.20524)" fill="#FD5889"/>
<ellipse cx="11.2628" cy="9.20523" rx="6" ry="4" transform="rotate(-54 11.2628 9.20523)" fill="#FD5889"/>
<circle cx="14.9" cy="4.82159" r="2.6" fill="#FF6F89" stroke="#F9F9F9" stroke-width="2"/>
</svg>
