<svg width="19" height="18" viewBox="0 0 19 18" fill="none" xmlns="http://www.w3.org/2000/svg">
<path d="M9.5 15.7432C9.01625 15.3144 8.4695 14.8683 7.89127 14.3938H7.88377C5.84752 12.7297 3.53977 10.8466 2.52052 8.59028C2.18566 7.87191 2.0082 7.09038 2.00001 6.29794C1.99777 5.2106 2.43409 4.16825 3.21037 3.40647C3.98665 2.64469 5.03736 2.22779 6.12502 2.24999C7.01049 2.25138 7.8769 2.50717 8.621 2.98687C8.948 3.19898 9.2438 3.45557 9.5 3.74923C9.75763 3.45672 10.0536 3.20028 10.3798 2.98687C11.1236 2.50707 11.9898 2.25127 12.875 2.24999C13.9627 2.22779 15.0134 2.64469 15.7897 3.40647C16.566 4.16825 17.0023 5.2106 17 6.29794C16.9924 7.09164 16.8149 7.87454 16.4795 8.59402C15.4603 10.8504 13.1533 12.7327 11.117 14.3938L11.1095 14.3998C10.5305 14.8713 9.9845 15.3174 9.50075 15.7491L9.5 15.7432ZM6.12502 3.74923C5.4264 3.74049 4.75257 4.00773 4.25002 4.49285C3.76581 4.96823 3.49519 5.61956 3.49996 6.29794C3.50851 6.87552 3.63939 7.44474 3.88402 7.96809C4.36515 8.94162 5.01435 9.82265 5.80177 10.5708C6.54502 11.3204 7.40002 12.046 8.1395 12.6562C8.34425 12.8249 8.55275 12.995 8.76125 13.1652L8.8925 13.2724C9.09275 13.4358 9.29975 13.6052 9.5 13.7716L9.50975 13.7627L9.51425 13.7589H9.51875L9.5255 13.7537H9.52925H9.533L9.5465 13.7424L9.57725 13.7177L9.5825 13.7132L9.59075 13.7072H9.59525L9.602 13.7012L10.1 13.2926L10.2305 13.1854C10.4413 13.0138 10.6498 12.8436 10.8545 12.675C11.594 12.0648 12.4498 11.3399 13.193 10.5865C13.9806 9.83884 14.6298 8.95796 15.1108 7.98458C15.3598 7.4567 15.4926 6.88152 15.5001 6.29794C15.5032 5.62165 15.2326 4.97283 14.75 4.49885C14.2484 4.01154 13.5745 3.74209 12.875 3.74923C12.0214 3.74197 11.2055 4.09957 10.6325 4.73198L9.5 6.03632L8.3675 4.73198C7.79457 4.09957 6.97858 3.74197 6.12502 3.74923Z" fill="#99AAC4"/>
<circle cx="14.8999" cy="4.32" r="2.6" fill="#FF6F89" stroke="#F9F9F9" stroke-width="2"/>
</svg>
