<svg width="12" height="12" viewBox="0 0 12 12" fill="none" xmlns="http://www.w3.org/2000/svg">
<path d="M9.5 5C9.3674 5 9.2402 5.0527 9.14645 5.14645C9.0527 5.2402 9 5.3674 9 5.5V7.19L8.26 6.45C7.9987 6.19075 7.64555 6.0453 7.2775 6.0453C6.90945 6.0453 6.5563 6.19075 6.295 6.45L5.945 6.805L4.705 5.56C4.44371 5.30075 4.09057 5.1553 3.7225 5.1553C3.35443 5.1553 3.00129 5.30075 2.74 5.56L2 6.305V3.5C2 3.36739 2.05268 3.24022 2.14645 3.14645C2.24022 3.05268 2.36739 3 2.5 3H6.5C6.6326 3 6.7598 2.94732 6.85355 2.85355C6.9473 2.75978 7 2.63261 7 2.5C7 2.36739 6.9473 2.24022 6.85355 2.14645C6.7598 2.05268 6.6326 2 6.5 2H2.5C2.10217 2 1.72064 2.15804 1.43934 2.43934C1.15804 2.72065 1 3.10217 1 3.5V9.61C1.00132 9.97825 1.14819 10.331 1.40858 10.5914C1.66897 10.8518 2.02176 10.9987 2.39 11H8.61C8.7455 10.9989 8.88015 10.9787 9.01 10.94C9.2987 10.859 9.5529 10.6856 9.73355 10.4462C9.91415 10.2069 10.0113 9.91485 10.01 9.615V5.5C10.01 5.4335 9.99675 5.36765 9.971 5.3063C9.94525 5.245 9.90755 5.18945 9.86005 5.14285C9.81255 5.0963 9.75625 5.0597 9.6944 5.03515C9.6326 5.0106 9.5665 4.99867 9.5 5ZM2.5 10C2.36739 10 2.24022 9.9473 2.14645 9.85355C2.05268 9.7598 2 9.6326 2 9.5V7.715L3.445 6.27C3.51807 6.19735 3.61695 6.15655 3.72 6.15655C3.82306 6.15655 3.92192 6.19735 3.995 6.27L7.73 10H2.5ZM9 9.5C8.9968 9.5968 8.9655 9.6906 8.91 9.77L6.65 7.5L7.005 7.15C7.04085 7.1134 7.08365 7.08435 7.13085 7.0645C7.17805 7.04465 7.2288 7.03445 7.28 7.03445C7.3312 7.03445 7.38195 7.04465 7.42915 7.0645C7.47635 7.08435 7.51915 7.1134 7.555 7.15L9 8.605V9.5ZM10.5 2H10V1.5C10 1.36739 9.9473 1.24022 9.85355 1.14645C9.7598 1.05268 9.6326 1 9.5 1C9.3674 1 9.2402 1.05268 9.14645 1.14645C9.0527 1.24022 9 1.36739 9 1.5V2H8.5C8.3674 2 8.2402 2.05268 8.14645 2.14645C8.0527 2.24022 8 2.36739 8 2.5C8 2.63261 8.0527 2.75978 8.14645 2.85355C8.2402 2.94732 8.3674 3 8.5 3H9V3.5C9 3.63261 9.0527 3.75978 9.14645 3.85355C9.2402 3.94732 9.3674 4 9.5 4C9.6326 4 9.7598 3.94732 9.85355 3.85355C9.9473 3.75978 10 3.63261 10 3.5V3H10.5C10.6326 3 10.7598 2.94732 10.8535 2.85355C10.9473 2.75978 11 2.63261 11 2.5C11 2.36739 10.9473 2.24022 10.8535 2.14645C10.7598 2.05268 10.6326 2 10.5 2Z" fill="#49566F"/>
</svg>
