<svg width="12" height="12" viewBox="0 0 12 12" fill="none" xmlns="http://www.w3.org/2000/svg">
<path d="M9.5 5C9.3674 5 9.2402 5.0527 9.14645 5.14645C9.0527 5.2402 9 5.3674 9 5.5V7.195L8.26 6.455C8.1313 6.32545 7.9782 6.2226 7.8096 6.15245C7.64095 6.0823 7.46015 6.0462 7.2775 6.0462C7.09485 6.0462 6.91405 6.0823 6.7454 6.15245C6.5768 6.2226 6.4237 6.32545 6.295 6.455L5.945 6.805L4.705 5.56C4.44371 5.30075 4.09057 5.1553 3.7225 5.1553C3.35443 5.1553 3.00129 5.30075 2.74 5.56L2 6.3V3.5C2 3.36739 2.05268 3.24021 2.14645 3.14644C2.24022 3.05268 2.36739 3 2.5 3H6.5C6.6326 3 6.7598 2.94732 6.85355 2.85355C6.9473 2.75978 7 2.63261 7 2.5C7 2.36739 6.9473 2.24021 6.85355 2.14644C6.7598 2.05268 6.6326 2 6.5 2H2.5C2.10217 2 1.72064 2.15803 1.43934 2.43934C1.15804 2.72064 1 3.10217 1 3.5V9.5C1 9.8978 1.15804 10.2793 1.43934 10.5606C1.72064 10.8419 2.10217 11 2.5 11H8.5C8.8978 11 9.27935 10.8419 9.56065 10.5606C9.84195 10.2793 10 9.8978 10 9.5V5.5C10 5.3674 9.9473 5.2402 9.85355 5.14645C9.7598 5.0527 9.6326 5 9.5 5ZM2.5 10C2.36739 10 2.24022 9.9473 2.14645 9.85355C2.05268 9.7598 2 9.6326 2 9.5V7.715L3.45 6.265C3.52346 6.195 3.62103 6.15595 3.7225 6.15595C3.82397 6.15595 3.92154 6.195 3.995 6.265L5.58 7.85L7.725 10H2.5ZM9 9.5C8.9993 9.5957 8.9677 9.68865 8.91 9.765L6.655 7.5L7.005 7.15C7.0781 7.07735 7.17695 7.03655 7.28 7.03655C7.38305 7.03655 7.4819 7.07735 7.555 7.15L9 8.61V9.5ZM10.205 2.5L10.855 1.855C10.9481 1.76132 11.0004 1.63459 11.0004 1.5025C11.0004 1.3704 10.9481 1.24368 10.855 1.15C10.8085 1.10313 10.7532 1.06594 10.6923 1.04055C10.6313 1.01517 10.566 1.0021 10.5 1.0021C10.434 1.0021 10.3687 1.01517 10.3077 1.04055C10.2468 1.06594 10.1915 1.10313 10.145 1.15L9.5 1.795L8.855 1.15C8.8085 1.10313 8.7532 1.06594 8.6923 1.04055C8.63135 1.01517 8.566 1.0021 8.5 1.0021C8.434 1.0021 8.36865 1.01517 8.3077 1.04055C8.2468 1.06594 8.1915 1.10313 8.145 1.15C8.0519 1.24368 7.9996 1.3704 7.9996 1.5025C7.9996 1.63459 8.0519 1.76132 8.145 1.855L8.795 2.5L8.145 3.15C8.0519 3.24368 7.9996 3.3704 7.9996 3.5025C7.9996 3.63459 8.0519 3.76132 8.145 3.855C8.1915 3.90186 8.2468 3.93906 8.3077 3.96444C8.36865 3.98983 8.434 4.0029 8.5 4.0029C8.566 4.0029 8.63135 3.98983 8.6923 3.96444C8.7532 3.93906 8.8085 3.90186 8.855 3.855L9.5 3.21L10.145 3.855C10.1915 3.90186 10.2468 3.93906 10.3077 3.96444C10.3687 3.98983 10.434 4.0029 10.5 4.0029C10.566 4.0029 10.6313 3.98983 10.6923 3.96444C10.7532 3.93906 10.8085 3.90186 10.855 3.855C10.9481 3.76132 11.0004 3.63459 11.0004 3.5025C11.0004 3.3704 10.9481 3.24368 10.855 3.15L10.205 2.5Z" fill="#FF6F89"/>
</svg>
