<svg width="10" height="10" viewBox="0 0 10 10" fill="none" xmlns="http://www.w3.org/2000/svg">
<path d="M4.08333 1.25C2.93274 1.25 2 2.18274 2 3.33333C2 4.48392 2.93274 5.41667 4.08333 5.41667C5.23392 5.41667 6.16667 4.48392 6.16667 3.33333C6.16667 2.18274 5.23392 1.25 4.08333 1.25ZM2.83333 3.33333C2.83333 2.64298 3.39298 2.08333 4.08333 2.08333C4.77371 2.08333 5.33333 2.64298 5.33333 3.33333C5.33333 4.02369 4.77371 4.58333 4.08333 4.58333C3.39298 4.58333 2.83333 4.02369 2.83333 3.33333Z" fill="white"/>
<path d="M7.37854 3.42427C7.26133 3.36451 7.13162 3.33335 7.00004 3.33335V2.50002C7.2632 2.50002 7.52262 2.56231 7.75708 2.68184C7.78291 2.69501 7.80833 2.70883 7.83337 2.72328C8.03562 2.84005 8.21137 2.99819 8.34891 3.18772C8.50349 3.40071 8.60541 3.64727 8.64637 3.90723C8.68737 4.1672 8.66616 4.43316 8.58458 4.68337C8.50299 4.93353 8.36333 5.16087 8.17699 5.3467C7.99066 5.53257 7.76299 5.67162 7.51258 5.75257C7.28974 5.82457 7.05454 5.84874 6.82233 5.82382C6.79362 5.82074 6.76491 5.81691 6.73629 5.81232C6.47662 5.7707 6.23049 5.66824 6.01799 5.51328L6.01758 5.51295L6.50879 4.83982C6.61508 4.91737 6.73824 4.96866 6.86816 4.98945C6.99808 5.01028 7.13108 5.00003 7.25629 4.95957C7.38149 4.91912 7.49533 4.84957 7.58849 4.75666C7.68166 4.66374 7.75149 4.55007 7.79229 4.42499C7.83308 4.29991 7.84366 4.16691 7.8232 4.03694C7.8027 3.90697 7.75174 3.78369 7.67445 3.6772C7.59716 3.57072 7.49579 3.48404 7.37854 3.42427Z" fill="white"/>
<path d="M8.66588 8.75C8.66588 8.53125 8.62279 8.31462 8.53908 8.1125C8.45533 7.91037 8.33263 7.72675 8.17796 7.57204C8.02325 7.41737 7.83963 7.29467 7.6375 7.21092C7.43538 7.12721 7.21875 7.08412 7 7.08412V6.25C7.28421 6.25 7.566 6.29846 7.83333 6.39296C7.87483 6.40762 7.91596 6.42342 7.95671 6.44029C8.26004 6.56596 8.53562 6.75008 8.76775 6.98225C8.99992 7.21438 9.18404 7.48996 9.30971 7.79329C9.32658 7.83404 9.34238 7.87517 9.35704 7.91667C9.45154 8.184 9.5 8.46579 9.5 8.75H8.66588Z" fill="white"/>
<path d="M6.99996 8.74999H6.16663C6.16663 7.5994 5.23388 6.66665 4.08329 6.66665C2.9327 6.66665 1.99996 7.5994 1.99996 8.74999H1.16663C1.16663 7.13915 2.47246 5.83332 4.08329 5.83332C5.69413 5.83332 6.99996 7.13915 6.99996 8.74999Z" fill="white"/>
</svg>
