<svg width="11" height="10" viewBox="0 0 11 10" fill="none" xmlns="http://www.w3.org/2000/svg">
<g clip-path="url(#clip0_3278_573)">
<path d="M5.07289 7.3125L4.33539 8.02917C4.142 8.22254 3.87972 8.33121 3.60622 8.33121C3.33273 8.33121 3.07045 8.22254 2.87706 8.02917C2.68367 7.83579 2.57502 7.5735 2.57502 7.3C2.57502 7.0265 2.68367 6.76421 2.87706 6.57083L4.76872 4.675C4.9544 4.48871 5.20457 4.38096 5.46749 4.37396C5.73041 4.367 5.98595 4.46133 6.18124 4.6375L6.23124 4.67917C6.31024 4.75654 6.41674 4.79933 6.52732 4.79817C6.63787 4.79696 6.74345 4.75192 6.82082 4.67292C6.89816 4.59392 6.94095 4.48742 6.93978 4.37683C6.93862 4.26625 6.89357 4.16069 6.81457 4.08333C6.79103 4.05293 6.76599 4.02372 6.73957 3.99583C6.38387 3.68638 5.92387 3.52369 5.4527 3.54071C4.98156 3.55773 4.53449 3.75319 4.20206 4.0875L2.28539 5.98333C1.9597 6.33783 1.78357 6.80446 1.79375 7.28575C1.80395 7.767 1.99967 8.22575 2.34007 8.56617C2.68047 8.90654 3.13921 9.10229 3.6205 9.11246C4.10178 9.12267 4.56839 8.9465 4.92289 8.62083L5.64374 7.91667C5.71491 7.83904 5.75403 7.73729 5.75324 7.63196C5.75245 7.52667 5.71178 7.42554 5.63945 7.34896C5.56712 7.27242 5.46845 7.22608 5.36332 7.21933C5.25824 7.21254 5.15445 7.24583 5.07289 7.3125ZM9.52707 1.37917C9.17653 1.03084 8.70245 0.835329 8.20832 0.835329C7.71416 0.835329 7.24007 1.03084 6.88957 1.37917L6.16874 2.08333C6.09753 2.16098 6.05841 2.2627 6.05924 2.36803C6.06003 2.47336 6.10066 2.57447 6.17299 2.65104C6.24537 2.7276 6.34399 2.77392 6.44912 2.78069C6.55424 2.78745 6.65799 2.75416 6.73957 2.6875L7.46041 1.97083C7.65378 1.77745 7.91607 1.6688 8.18957 1.6688C8.46303 1.6688 8.72532 1.77745 8.91874 1.97083C9.11212 2.16422 9.22074 2.42651 9.22074 2.7C9.22074 2.97349 9.11212 3.23578 8.91874 3.42917L7.02707 5.325C6.84137 5.51129 6.5912 5.61904 6.32828 5.62604C6.06541 5.633 5.80987 5.53867 5.61457 5.3625L5.56457 5.32083C5.48553 5.2435 5.37903 5.20067 5.26849 5.20183C5.15791 5.20304 5.05233 5.24808 4.97497 5.32708C4.89762 5.40608 4.85482 5.51258 4.85599 5.62317C4.85716 5.73375 4.90221 5.83933 4.98122 5.91667C5.01149 5.94762 5.04349 5.97683 5.07707 6.00417C5.43316 6.31271 5.89299 6.47479 6.36387 6.45775C6.8347 6.44075 7.28162 6.24592 7.61457 5.9125L9.51041 4.01667C9.86095 3.66837 10.0594 3.19551 10.0626 2.70135C10.0657 2.2072 9.8732 1.73187 9.52707 1.37917Z" fill="#17C6A6"/>
</g>
<defs>
<clipPath id="clip0_3278_573">
<rect width="10" height="10" fill="white" transform="translate(0.90625)"/>
</clipPath>
</defs>
</svg>
