<svg width="10" height="10" viewBox="0 0 10 10" fill="none" xmlns="http://www.w3.org/2000/svg">
<path d="M1.84166 8.57457C1.72478 8.57437 1.61336 8.52512 1.53458 8.43874C1.45435 8.35312 1.41448 8.23728 1.425 8.12041L1.52708 6.99791L6.24292 2.28375L7.71667 3.75709L3.00208 8.47082L1.87958 8.57291C1.86666 8.57416 1.85375 8.57457 1.84166 8.57457ZM8.01083 3.4625L6.5375 1.98917L7.42125 1.10542C7.49942 1.02718 7.60546 0.983215 7.71604 0.983215C7.82662 0.983215 7.93267 1.02718 8.01083 1.10542L8.89458 1.98917C8.97283 2.06732 9.01679 2.17337 9.01679 2.28396C9.01679 2.39455 8.97283 2.5006 8.89458 2.57875L8.01125 3.46209L8.01083 3.4625Z" fill="#49566F"/>
</svg>
