<svg width="12" height="12" viewBox="0 0 12 12" fill="none" xmlns="http://www.w3.org/2000/svg">
<path d="M10.855 1.15C10.7613 1.05688 10.6346 1.00461 10.5025 1.00461C10.3704 1.00461 10.2437 1.05688 10.15 1.15L8.46 2.8L7.85 2.2C7.7552 2.10718 7.6274 2.05582 7.4947 2.05723C7.362 2.05863 7.23535 2.11269 7.1425 2.2075C7.04965 2.30232 6.9983 2.43012 6.9997 2.56281C7.00115 2.69549 7.0552 2.82218 7.15 2.915L8.11 3.855C8.20345 3.94662 8.3291 3.99793 8.46 3.99793C8.5909 3.99793 8.71655 3.94662 8.81 3.855L10.85 1.855C10.9438 1.76198 10.997 1.63563 10.9979 1.50353C10.9988 1.37144 10.9474 1.24434 10.855 1.15ZM9.5 4.5C9.3674 4.5 9.2402 4.55268 9.14645 4.64645C9.0527 4.74022 9 4.8674 9 5V7.195L8.26 6.455C8.1313 6.32545 7.9782 6.2226 7.8096 6.15245C7.64095 6.0823 7.46015 6.0462 7.2775 6.0462C7.09485 6.0462 6.91405 6.0823 6.7454 6.15245C6.5768 6.2226 6.4237 6.32545 6.295 6.455L5.945 6.805L4.705 5.56C4.44371 5.30075 4.09057 5.1553 3.7225 5.1553C3.35443 5.1553 3.00129 5.30075 2.74 5.56L2 6.3V3.5C2 3.3674 2.05268 3.24022 2.14645 3.14645C2.24022 3.05268 2.36739 3 2.5 3H5.5C5.6326 3 5.7598 2.94732 5.85355 2.85356C5.9473 2.75979 6 2.63261 6 2.5C6 2.36739 5.9473 2.24022 5.85355 2.14645C5.7598 2.05268 5.6326 2 5.5 2H2.5C2.10217 2 1.72064 2.15804 1.43934 2.43934C1.15804 2.72065 1 3.10218 1 3.5V9.5C1 9.89785 1.15804 10.2794 1.43934 10.5607C1.72064 10.842 2.10217 11 2.5 11H8.5C8.8978 11 9.27935 10.842 9.56065 10.5607C9.84195 10.2794 10 9.89785 10 9.5V5C10 4.8674 9.9473 4.74022 9.85355 4.64645C9.7598 4.55268 9.6326 4.5 9.5 4.5ZM2.5 10C2.36739 10 2.24022 9.9473 2.14645 9.85355C2.05268 9.7598 2 9.6326 2 9.5V7.715L3.45 6.265C3.52346 6.195 3.62103 6.15595 3.7225 6.15595C3.82397 6.15595 3.92154 6.195 3.995 6.265L5.58 7.85L7.725 10H2.5ZM9 9.5C8.9993 9.5957 8.9677 9.68865 8.91 9.765L6.655 7.5L7.005 7.15C7.0781 7.07735 7.17695 7.03655 7.28 7.03655C7.38305 7.03655 7.4819 7.07735 7.555 7.15L9 8.61V9.5Z" fill="#2ED9A6"/>
</svg>
