<?xml version="1.0" standalone="no"?>
<!DOCTYPE svg PUBLIC "-//W3C//DTD SVG 20010904//EN"
 "http://www.w3.org/TR/2001/REC-SVG-20010904/DTD/svg10.dtd">
<svg version="1.0" xmlns="http://www.w3.org/2000/svg"
 width="1280.000000pt" height="1280.000000pt" viewBox="0 0 1280.000000 1280.000000"
 preserveAspectRatio="xMidYMid meet">
<metadata>
Created by potrace 1.14, written by Peter Selinger 2001-2017
</metadata>
<g transform="translate(0.000000,1280.000000) scale(0.100000,-0.100000)"
fill="#000000" stroke="none">
<path d="M5403 11542 c60 -27 113 -54 120 -61 6 -6 18 -11 27 -11 9 0 20 -4
26 -9 5 -5 61 -36 125 -69 143 -73 288 -161 443 -266 148 -101 157 -107 180
-128 11 -10 23 -18 27 -18 14 0 253 -196 403 -329 135 -121 407 -406 502 -526
21 -27 42 -52 45 -55 24 -21 277 -368 314 -431 9 -15 150 -247 176 -289 5 -8
21 -40 37 -70 15 -30 30 -56 35 -58 4 -2 7 -7 7 -11 0 -5 38 -87 84 -182 98
-202 225 -518 242 -597 2 -13 11 -40 19 -60 32 -83 128 -466 151 -602 8 -46
14 -85 19 -125 4 -22 8 -47 10 -55 2 -8 7 -41 10 -73 4 -32 8 -67 10 -77 2
-10 6 -50 10 -87 3 -37 8 -79 10 -93 22 -130 22 -671 0 -885 -3 -22 -7 -71
-10 -110 -3 -38 -8 -77 -10 -85 -2 -8 -7 -42 -10 -75 -8 -77 -13 -114 -20
-145 -3 -14 -7 -38 -10 -55 -3 -16 -7 -41 -10 -55 -3 -14 -7 -41 -10 -60 -7
-43 -51 -235 -70 -304 -31 -117 -138 -452 -155 -491 -5 -11 -23 -56 -40 -100
-29 -77 -36 -93 -65 -160 -118 -270 -338 -663 -495 -883 -25 -35 -52 -74 -60
-85 -13 -20 -124 -166 -160 -211 -18 -23 -75 -90 -144 -171 -71 -84 -383 -398
-467 -470 -39 -33 -78 -67 -87 -75 -9 -8 -37 -31 -62 -50 -25 -19 -47 -38 -50
-41 -3 -4 -46 -37 -95 -74 -50 -36 -97 -72 -105 -78 -32 -26 -220 -149 -386
-254 -236 -149 -711 -368 -979 -452 -38 -13 -79 -26 -90 -31 -80 -36 -514
-142 -718 -175 -17 -3 -43 -7 -57 -10 -47 -9 -88 -15 -131 -20 -24 -3 -64 -7
-89 -10 -25 -4 -65 -8 -90 -9 -25 -2 -92 -8 -150 -12 -58 -5 -213 -9 -346 -9
l-241 0 55 -22 c31 -13 59 -23 64 -23 4 0 27 -9 51 -19 105 -49 479 -166 622
-197 6 -1 51 -11 100 -23 195 -45 510 -93 710 -108 205 -16 824 -8 965 12 14
2 43 6 65 9 22 3 63 8 90 12 165 19 448 75 655 130 127 34 418 131 560 187
143 57 285 121 427 195 35 18 64 31 66 30 2 -2 10 2 18 8 8 6 46 28 84 49 39
21 77 43 85 50 8 7 30 18 48 26 17 8 32 17 32 21 0 5 6 8 13 8 7 0 22 7 32 16
11 8 58 39 105 69 47 30 90 58 95 62 6 5 48 35 95 68 82 57 324 246 345 269 6
6 35 31 65 56 70 56 397 381 470 466 30 36 68 79 83 97 16 18 77 95 137 173
196 254 380 546 523 829 60 118 84 169 144 305 57 126 181 482 219 625 11 42
11 44 14 50 1 3 3 8 4 13 1 4 5 16 9 27 3 11 8 31 11 45 3 14 12 57 21 95 31
138 45 202 50 241 4 21 12 77 20 124 7 47 19 128 25 180 6 52 13 109 15 125
19 151 26 638 11 870 -8 134 -9 146 -20 230 -23 170 -35 251 -55 360 -6 33
-13 75 -16 94 -3 19 -8 37 -10 41 -2 4 -7 22 -10 41 -4 19 -8 39 -9 44 -1 6
-6 26 -10 45 -72 320 -232 760 -394 1085 -67 134 -184 345 -223 402 -16 23
-29 46 -29 51 0 5 -7 15 -15 22 -9 7 -22 27 -30 44 -8 17 -26 44 -40 60 -14
16 -25 33 -25 37 0 4 -6 14 -12 21 -7 7 -31 40 -53 72 -22 33 -44 64 -50 70
-5 6 -21 28 -35 48 -14 21 -28 38 -32 38 -5 0 -8 5 -8 11 0 6 -6 16 -12 24 -7
7 -29 32 -48 56 -162 200 -405 457 -578 609 -41 36 -79 70 -85 75 -45 40 -188
155 -217 175 -19 13 -37 27 -40 30 -37 44 -443 309 -610 398 -36 19 -77 43
-92 53 -14 11 -30 19 -35 19 -4 0 -57 25 -117 55 -60 30 -115 55 -123 55 -7 0
-13 5 -13 10 0 6 -6 10 -12 10 -7 0 -53 17 -103 39 -88 38 -110 46 -130 51 -5
1 -19 7 -30 13 -11 6 -24 12 -30 14 -5 2 -75 25 -155 52 -136 46 -394 124
-450 135 -14 3 -34 7 -45 9 -135 31 -411 80 -520 92 -32 4 -67 9 -77 10 -21 4
-127 13 -248 20 l-85 5 108 -48z"/>
<path d="M2578 10415 c-2 -2 -68 -5 -148 -9 -159 -7 -199 -11 -310 -27 -41 -6
-84 -12 -95 -14 -57 -8 -122 -18 -135 -20 -221 -45 -462 -113 -630 -177 -150
-57 -342 -139 -360 -154 -8 -7 -19 -13 -25 -14 -21 -2 -245 -126 -360 -198
-144 -91 -228 -151 -355 -252 -173 -137 -173 -135 7 -74 194 65 302 94 503
132 151 30 192 36 295 47 28 3 64 7 80 10 140 22 624 22 800 -1 17 -2 55 -6
85 -9 30 -3 66 -8 80 -11 13 -3 40 -7 60 -10 19 -2 46 -6 60 -9 14 -3 36 -7
50 -10 475 -89 962 -278 1360 -529 103 -65 248 -163 270 -183 14 -13 28 -23
31 -23 4 0 21 -13 39 -30 18 -16 35 -30 39 -30 3 0 22 -15 41 -33 20 -17 60
-52 90 -76 108 -88 434 -425 489 -505 8 -12 18 -23 21 -26 17 -14 135 -178
199 -275 39 -60 76 -115 81 -122 6 -7 10 -15 10 -19 0 -3 8 -18 19 -32 40 -58
190 -347 187 -363 -1 -3 5 -14 13 -23 15 -18 101 -224 127 -306 8 -25 19 -54
23 -65 33 -77 139 -499 156 -620 3 -22 10 -69 16 -105 26 -166 34 -289 34
-550 0 -215 -8 -397 -19 -456 -2 -11 -9 -62 -16 -114 -26 -211 -96 -508 -167
-705 -13 -38 -26 -77 -28 -85 -2 -8 -24 -69 -50 -134 -67 -173 -196 -434 -285
-576 -5 -8 -23 -38 -40 -67 -36 -60 -200 -293 -239 -339 -14 -17 -44 -52 -66
-79 -76 -93 -139 -161 -285 -306 l-146 -146 65 27 c220 91 367 165 551 277
147 89 144 87 150 93 3 3 41 30 85 60 44 29 82 56 85 59 3 3 30 25 61 47 155
116 426 369 559 524 36 41 67 77 70 80 3 3 38 48 78 100 39 52 76 100 82 107
31 38 196 291 217 333 7 14 23 43 37 65 22 36 136 263 172 340 44 98 155 402
169 463 2 9 13 49 25 87 11 39 23 84 26 100 3 17 11 53 19 80 8 28 16 66 19
85 2 19 11 69 19 110 9 41 18 102 22 135 4 32 8 62 10 65 1 3 6 46 10 95 4 50
9 108 11 130 5 54 5 491 0 535 -3 19 -7 71 -11 115 -3 44 -8 87 -10 95 -2 8
-6 42 -10 75 -3 33 -7 67 -10 75 -2 8 -6 33 -10 55 -18 128 -101 465 -135 550
-11 28 -23 59 -25 65 -9 36 -33 104 -53 150 -6 14 -23 54 -38 90 -61 151 -174
379 -235 475 -21 34 -39 65 -39 68 0 9 -84 131 -92 135 -5 2 -8 9 -8 16 0 7
-9 21 -20 31 -11 10 -20 24 -20 31 0 7 -3 14 -7 16 -5 2 -35 39 -67 83 -140
188 -282 346 -487 540 -106 100 -130 120 -269 227 -434 332 -908 565 -1415
698 -100 26 -298 70 -335 74 -14 2 -79 12 -140 22 -14 2 -52 6 -85 10 -33 3
-71 7 -85 10 -37 6 -437 23 -442 19z"/>
</g>
</svg>
